<?xml version="1.0" encoding="UTF-8"?>
<svg xmlns="http://www.w3.org/2000/svg" xmlns:xlink="http://www.w3.org/1999/xlink" width="3000" height="3000" viewBox="0 0 3000 3000">
<path fill-rule="nonzero" fill="rgb(94.921875%, 62.304688%, 1.997375%)" fill-opacity="1" d="M 2076.660156 2484.601562 C 2125.980469 2514.601562 2175.691406 2544.898438 2217.929688 2584.261719 C 2229.328125 2594.878906 2240.308594 2606.371094 2247.238281 2620.320312 C 2254.140625 2634.269531 2256.511719 2651.191406 2250.359375 2665.5 C 2244.210938 2679.808594 2228.21875 2690.21875 2206.828125 2693.789062 C 2224.171875 2710.351562 2227.019531 2739.929688 2213.128906 2759.488281 C 2202.660156 2774.21875 2184.808594 2782.320312 2166.960938 2784.960938 C 2149.109375 2787.601562 2130.898438 2785.378906 2106.570312 2779.019531 C 2112.238281 2800.46875 2096.460938 2823.058594 2076.179688 2832.03125 C 2055.898438 2841 2032.621094 2839.410156 2010.71875 2836.050781 C 1937.851562 2824.890625 1868.851562 2796.148438 1802.878906 2763.210938 C 1774.410156 2748.988281 1745.699219 2733.449219 1724.488281 2709.71875 C 1703.28125 2685.988281 1690.710938 2652.210938 1699.890625 2621.699219 C 1713.539062 2576.339844 1765.769531 2556.960938 1811.308594 2543.878906 C 1900.199219 2518.320312 1989.148438 2492.789062 2076.660156 2484.601562 Z M 1006.621094 2484.601562 C 957.300781 2514.601562 907.589844 2544.898438 865.351562 2584.261719 C 853.949219 2594.878906 842.96875 2606.371094 836.039062 2620.320312 C 829.140625 2634.269531 826.769531 2651.191406 832.921875 2665.5 C 839.070312 2679.808594 855.058594 2690.21875 876.449219 2693.789062 C 859.109375 2710.351562 856.261719 2739.929688 870.148438 2759.488281 C 880.621094 2774.21875 898.46875 2782.320312 916.320312 2784.960938 C 934.171875 2787.601562 952.378906 2785.378906 976.710938 2779.019531 C 971.039062 2800.46875 986.820312 2823.058594 1007.101562 2832.03125 C 1027.378906 2841 1050.660156 2839.410156 1072.558594 2836.050781 C 1145.429688 2824.890625 1214.429688 2796.148438 1280.398438 2763.210938 C 1308.871094 2748.988281 1337.578125 2733.449219 1358.789062 2709.71875 C 1380 2685.988281 1392.570312 2652.210938 1383.390625 2621.699219 C 1369.738281 2576.339844 1317.511719 2556.960938 1271.96875 2543.878906 C 1183.109375 2518.320312 1094.160156 2492.789062 1006.621094 2484.601562 "/>
<path fill-rule="nonzero" fill="rgb(8.203125%, 9.008789%, 25.097656%)" fill-opacity="1" d="M 758.609375 1949.25 C 681.238281 2019.871094 593.96875 2079.570312 500.101562 2126.039062 C 487.621094 2132.21875 473.21875 2138.25 460.261719 2133.179688 C 436.289062 2123.789062 439.738281 2089.050781 448.320312 2064.808594 C 543.808594 1794.660156 730.589844 1568.160156 913.800781 1347.871094 C 750.929688 1131.421875 725.25 819.898438 847.53125 575.578125 C 969.808594 331.261719 1234.621094 165.179688 1507.800781 161.398438 C 1780.980469 157.589844 2050.289062 316.289062 2179.351562 557.101562 C 2308.410156 797.910156 2291.371094 1110.03125 2129.671875 1338.75 C 2218.289062 1447.320312 2307.148438 1556.160156 2383.019531 1674 C 2458.921875 1791.839844 2521.890625 1919.398438 2554.46875 2055.71875 C 2560.441406 2080.648438 2561.519531 2113.980469 2538.058594 2124.328125 C 2525.640625 2129.820312 2511.269531 2125.859375 2498.398438 2121.511719 C 2422.800781 2095.921875 2351.429688 2057.851562 2279.699219 1996.921875 C 2323.890625 2119.261719 2298.03125 2260.800781 2226.480469 2369.460938 C 2154.929688 2478.121094 2041.921875 2555.339844 1919.460938 2599.199219 C 1797 2643.058594 1665.238281 2655.511719 1535.191406 2653.351562 C 1333.109375 2650.019531 1124.371094 2609.011719 961.738281 2489.011719 C 799.109375 2369.011719 693.839844 2157.121094 758.609375 1949.25 "/>
<path fill-rule="nonzero" fill="rgb(94.921875%, 94.921875%, 94.921875%)" fill-opacity="1" d="M 1624.980469 2553 C 1730.371094 2537.609375 1835.820312 2513.609375 1930.621094 2465.101562 C 2025.421875 2416.589844 2109.421875 2341.46875 2153.128906 2244.359375 C 2197.828125 2145.03125 2197.441406 2031.121094 2182.078125 1923.300781 C 2167.5 1820.820312 2139.539062 1718.761719 2085.75 1630.351562 C 2031.929688 1541.910156 1950.269531 1467.808594 1851.511719 1436.789062 C 2002.410156 1307.128906 2099.460938 1134.359375 2123.308594 951.058594 C 2130.808594 893.371094 2131.230469 833.910156 2115.539062 777.898438 C 2099.851562 721.890625 2066.851562 669.359375 2017.949219 637.828125 C 1948.410156 593.039062 1854.300781 597.148438 1781.308594 636.121094 C 1708.320312 675.089844 1655.070312 744.449219 1621.710938 820.171875 C 1588.351562 895.890625 1573.109375 978.179688 1560.988281 1060.019531 C 1563.449219 1059.179688 1506.539062 1055.398438 1506.539062 1055.398438 C 1498.289062 986.039062 1487.28125 916.46875 1463.671875 850.738281 C 1440.058594 785.011719 1403.039062 722.789062 1349.460938 677.96875 C 1286.96875 625.679688 1201.679688 599.730469 1121.460938 614.101562 C 1041.238281 628.46875 968.488281 684.898438 939.808594 761.191406 C 921.71875 809.308594 921.058594 862.289062 926.339844 913.410156 C 947.941406 1123.171875 1070.96875 1320.121094 1248.480469 1426.980469 C 1001.699219 1469.878906 903.691406 1649.730469 862.378906 1844.339844 C 821.039062 2038.949219 894.089844 2253.601562 1045.558594 2382.601562 C 1190.820312 2506.320312 1390.558594 2587.230469 1624.980469 2553 "/>
<path fill-rule="nonzero" fill="rgb(94.921875%, 62.304688%, 1.997375%)" fill-opacity="1" d="M 1725.570312 1078.199219 C 1681.140625 1056.089844 1630.078125 1052.519531 1580.550781 1049.339844 C 1501.949219 1044.300781 1421.910156 1039.378906 1345.441406 1058.160156 C 1325.941406 1062.960938 1303.949219 1072.140625 1299.089844 1091.640625 C 1293.839844 1112.609375 1311.601562 1131.839844 1328.519531 1145.28125 C 1388.070312 1192.589844 1456.890625 1226.550781 1527.148438 1265.640625 C 1587.511719 1229.039062 1647.839844 1192.410156 1708.199219 1155.808594 C 1720.980469 1148.039062 1734.449219 1139.578125 1740.898438 1126.078125 C 1747.351562 1112.578125 1745.789062 1088.28125 1725.570312 1078.199219 "/>
<path fill-rule="nonzero" fill="rgb(72.851562%, 49.388123%, 5.099487%)" fill-opacity="1" d="M 1301.550781 1097.460938 C 1319.128906 1110.238281 1336.828125 1122.691406 1355.128906 1134.089844 L 1368.871094 1142.609375 L 1382.820312 1150.769531 L 1396.890625 1158.660156 L 1411.109375 1166.21875 C 1430.25 1175.96875 1449.628906 1185.179688 1469.550781 1193.039062 C 1489.351562 1201.230469 1509.628906 1208.191406 1530.121094 1214.28125 L 1525.5 1214.429688 C 1544.429688 1207.679688 1562.96875 1199.910156 1581.359375 1191.78125 C 1599.75 1183.621094 1617.75 1174.621094 1635.570312 1165.230469 C 1653.300781 1155.691406 1670.851562 1145.671875 1688.011719 1134.960938 C 1705.230469 1124.371094 1722.03125 1113.03125 1738.769531 1101.421875 C 1724.039062 1115.488281 1708.289062 1128.480469 1692 1140.808594 C 1675.648438 1153.019531 1658.730469 1164.570312 1641.179688 1175.101562 C 1623.71875 1185.78125 1605.601562 1195.410156 1587.179688 1204.351562 C 1568.730469 1213.289062 1549.738281 1221.089844 1530.570312 1228.320312 L 1528.320312 1229.160156 L 1525.949219 1228.46875 C 1504.890625 1222.289062 1484.25 1214.699219 1464.058594 1206.179688 C 1443.988281 1197.328125 1424.28125 1187.671875 1405.441406 1176.539062 L 1391.398438 1168.050781 L 1377.601562 1159.199219 L 1364.128906 1149.871094 L 1350.898438 1140.210938 C 1333.558594 1126.949219 1316.910156 1112.851562 1301.550781 1097.460938 "/>
<path fill-rule="nonzero" fill="rgb(8.203125%, 9.008789%, 25.097656%)" fill-opacity="1" d="M 1770.539062 918.148438 C 1770.539062 848.25 1816.378906 791.578125 1872.960938 791.578125 C 1929.511719 791.578125 1975.378906 848.25 1975.378906 918.148438 C 1975.378906 988.050781 1929.539062 1044.71875 1872.960938 1044.71875 C 1816.378906 1044.71875 1770.539062 988.050781 1770.539062 918.148438 Z M 1174.738281 1044.71875 C 1231.289062 1044.71875 1277.160156 988.050781 1277.160156 918.148438 C 1277.160156 848.25 1231.320312 791.578125 1174.738281 791.578125 C 1118.160156 791.578125 1072.320312 848.25 1072.320312 918.148438 C 1072.320312 988.050781 1118.160156 1044.71875 1174.738281 1044.71875 "/>
<path fill-rule="nonzero" fill="rgb(94.921875%, 94.921875%, 94.921875%)" fill-opacity="1" d="M 1881.148438 848.851562 C 1881.148438 833.25 1891.378906 820.621094 1903.980469 820.621094 C 1916.609375 820.621094 1926.808594 833.25 1926.808594 848.851562 C 1926.808594 864.449219 1916.578125 877.078125 1903.980469 877.078125 C 1891.378906 877.078125 1881.148438 864.421875 1881.148438 848.851562 Z M 1935.570312 898.648438 C 1940.398438 898.648438 1944.300781 893.820312 1944.300781 887.851562 C 1944.300781 881.878906 1940.398438 877.050781 1935.570312 877.050781 C 1930.738281 877.050781 1926.839844 881.878906 1926.839844 887.851562 C 1926.839844 893.820312 1930.738281 898.648438 1935.570312 898.648438 Z M 1188 848.851562 C 1188 833.25 1198.230469 820.621094 1210.828125 820.621094 C 1223.429688 820.621094 1233.660156 833.25 1233.660156 848.851562 C 1233.660156 864.449219 1223.429688 877.078125 1210.828125 877.078125 C 1198.230469 877.078125 1188 864.421875 1188 848.851562 Z M 1242.421875 898.648438 C 1247.25 898.648438 1251.148438 893.820312 1251.148438 887.851562 C 1251.148438 881.878906 1247.25 877.050781 1242.421875 877.050781 C 1237.589844 877.050781 1233.691406 881.878906 1233.691406 887.851562 C 1233.691406 893.820312 1237.589844 898.648438 1242.421875 898.648438 "/>
</svg>
